<mxfile host="Electron" agent="Mozilla/5.0 (Macintosh; Intel Mac OS X 10_15_7) AppleWebKit/537.36 (KHTML, like Gecko) draw.io/25.0.2 Chrome/128.0.6613.186 Electron/32.2.5 Safari/537.36" version="25.0.2">
  <diagram name="Page-1" id="_gRGWOFDqU3hSQWJzQTY">
    <mxGraphModel dx="1862" dy="1805" grid="1" gridSize="10" guides="1" tooltips="1" connect="1" arrows="1" fold="1" page="1" pageScale="1" pageWidth="850" pageHeight="1100" background="none" math="1" shadow="0">
      <root>
        <mxCell id="0" />
        <mxCell id="1" parent="0" />
        <mxCell id="YoA1eTSPKysGuDBOuzfv-3" value="" style="rounded=1;whiteSpace=wrap;html=1;fillColor=#dae8fc;strokeColor=#6c8ebf;container=0;" parent="1" vertex="1">
          <mxGeometry x="-600" y="-630" width="20" height="20" as="geometry" />
        </mxCell>
        <mxCell id="YoA1eTSPKysGuDBOuzfv-9" value="" style="rounded=1;whiteSpace=wrap;html=1;fillColor=#dae8fc;strokeColor=#6c8ebf;container=0;" parent="1" vertex="1">
          <mxGeometry x="-600" y="-610" width="20" height="20" as="geometry" />
        </mxCell>
        <mxCell id="YoA1eTSPKysGuDBOuzfv-10" value="" style="rounded=1;whiteSpace=wrap;html=1;fillColor=#dae8fc;strokeColor=#6c8ebf;container=0;" parent="1" vertex="1">
          <mxGeometry x="-600" y="-590" width="20" height="20" as="geometry" />
        </mxCell>
        <mxCell id="YoA1eTSPKysGuDBOuzfv-11" value="" style="rounded=1;whiteSpace=wrap;html=1;fillColor=#dae8fc;strokeColor=#6c8ebf;container=0;" parent="1" vertex="1">
          <mxGeometry x="-600" y="-570" width="20" height="20" as="geometry" />
        </mxCell>
        <mxCell id="YoA1eTSPKysGuDBOuzfv-12" value="" style="rounded=1;whiteSpace=wrap;html=1;fillColor=#dae8fc;strokeColor=#6c8ebf;container=0;" parent="1" vertex="1">
          <mxGeometry x="-600" y="-550" width="20" height="20" as="geometry" />
        </mxCell>
        <mxCell id="YoA1eTSPKysGuDBOuzfv-16" value="" style="rounded=1;whiteSpace=wrap;html=1;fillColor=#60a917;strokeColor=#2D7600;container=0;fontColor=#ffffff;" parent="1" vertex="1">
          <mxGeometry x="-730.05" y="-620" width="20" height="20" as="geometry" />
        </mxCell>
        <mxCell id="YoA1eTSPKysGuDBOuzfv-17" value="" style="rounded=1;whiteSpace=wrap;html=1;fillColor=#D11200;strokeColor=#B20000;container=0;fontColor=#ffffff;" parent="1" vertex="1">
          <mxGeometry x="-730.05" y="-700" width="20" height="20" as="geometry" />
        </mxCell>
        <mxCell id="YoA1eTSPKysGuDBOuzfv-18" value="" style="rounded=1;whiteSpace=wrap;html=1;fillColor=#D11200;strokeColor=#B20000;container=0;fontColor=#ffffff;" parent="1" vertex="1">
          <mxGeometry x="-730.05" y="-720" width="20" height="20" as="geometry" />
        </mxCell>
        <mxCell id="YoA1eTSPKysGuDBOuzfv-19" value="" style="rounded=1;whiteSpace=wrap;html=1;fillColor=#0000FF;strokeColor=#0000CC;container=0;fontColor=#ffffff;" parent="1" vertex="1">
          <mxGeometry x="-730.05" y="-680" width="20" height="20" as="geometry" />
        </mxCell>
        <mxCell id="YoA1eTSPKysGuDBOuzfv-20" value="" style="rounded=1;whiteSpace=wrap;html=1;fillColor=#0000FF;strokeColor=#0000CC;container=0;fontColor=#ffffff;" parent="1" vertex="1">
          <mxGeometry x="-730.05" y="-660" width="20" height="20" as="geometry" />
        </mxCell>
        <mxCell id="YoA1eTSPKysGuDBOuzfv-21" value="" style="rounded=1;whiteSpace=wrap;html=1;fillColor=#0000FF;strokeColor=#0000CC;container=0;fontColor=#ffffff;" parent="1" vertex="1">
          <mxGeometry x="-730.05" y="-640" width="20" height="20" as="geometry" />
        </mxCell>
        <mxCell id="YoA1eTSPKysGuDBOuzfv-22" value="" style="rounded=1;whiteSpace=wrap;html=1;fillColor=#60a917;strokeColor=#2D7600;container=0;fontColor=#ffffff;" parent="1" vertex="1">
          <mxGeometry x="-730.05" y="-600" width="20" height="20" as="geometry" />
        </mxCell>
        <mxCell id="YoA1eTSPKysGuDBOuzfv-23" value="" style="rounded=1;whiteSpace=wrap;html=1;fillColor=#60a917;strokeColor=#2D7600;container=0;fontColor=#ffffff;" parent="1" vertex="1">
          <mxGeometry x="-730.05" y="-580" width="20" height="20" as="geometry" />
        </mxCell>
        <mxCell id="YoA1eTSPKysGuDBOuzfv-24" value="" style="rounded=1;whiteSpace=wrap;html=1;fillColor=#60a917;strokeColor=#2D7600;container=0;fontColor=#ffffff;" parent="1" vertex="1">
          <mxGeometry x="-730.05" y="-560" width="20" height="20" as="geometry" />
        </mxCell>
        <mxCell id="YoA1eTSPKysGuDBOuzfv-25" value="" style="rounded=1;whiteSpace=wrap;html=1;fillColor=#60a917;strokeColor=#2D7600;container=0;fontColor=#ffffff;" parent="1" vertex="1">
          <mxGeometry x="-730.05" y="-540" width="20" height="20" as="geometry" />
        </mxCell>
        <mxCell id="YoA1eTSPKysGuDBOuzfv-26" value="" style="rounded=1;whiteSpace=wrap;html=1;fillColor=#fa6800;strokeColor=#C73500;container=0;fontColor=#000000;" parent="1" vertex="1">
          <mxGeometry x="-730.05" y="-500" width="20" height="20" as="geometry" />
        </mxCell>
        <mxCell id="YoA1eTSPKysGuDBOuzfv-27" value="" style="rounded=1;whiteSpace=wrap;html=1;fillColor=#fa6800;strokeColor=#C73500;container=0;fontColor=#000000;" parent="1" vertex="1">
          <mxGeometry x="-730.05" y="-520" width="20" height="20" as="geometry" />
        </mxCell>
        <mxCell id="YoA1eTSPKysGuDBOuzfv-106" style="edgeStyle=orthogonalEdgeStyle;rounded=0;orthogonalLoop=1;jettySize=auto;html=1;entryX=0;entryY=0.5;entryDx=0;entryDy=0;" parent="1" source="YoA1eTSPKysGuDBOuzfv-104" target="YoA1eTSPKysGuDBOuzfv-9" edge="1">
          <mxGeometry relative="1" as="geometry" />
        </mxCell>
        <mxCell id="YoA1eTSPKysGuDBOuzfv-104" value="$$\textbf{Linear}_\theta$$" style="rounded=1;whiteSpace=wrap;html=1;fillColor=#d5e8d4;strokeColor=#82b366;fontFamily=Segoe UI;fontSize=12;" parent="1" vertex="1">
          <mxGeometry x="-689.87" y="-720" width="59.75" height="240" as="geometry" />
        </mxCell>
        <mxCell id="YoA1eTSPKysGuDBOuzfv-105" value="" style="labelPosition=right;align=left;strokeWidth=1;shape=mxgraph.mockup.markup.curlyBrace;html=1;shadow=0;dashed=0;strokeColor=#999999;direction=north;rotation=-180;" parent="1" vertex="1">
          <mxGeometry x="-711.05" y="-720" width="14.95" height="240" as="geometry" />
        </mxCell>
        <mxCell id="YoA1eTSPKysGuDBOuzfv-107" value="$$\mathbf{m} \in \mathbb{R}^{[1:M] \times 256}$$" style="text;html=1;align=center;verticalAlign=middle;whiteSpace=wrap;rounded=0;" parent="1" vertex="1">
          <mxGeometry x="-430" y="-490" width="60" height="30" as="geometry" />
        </mxCell>
        <mxCell id="YoA1eTSPKysGuDBOuzfv-109" value="" style="rounded=1;whiteSpace=wrap;html=1;fillColor=#dae8fc;strokeColor=#6c8ebf;container=0;" parent="1" vertex="1">
          <mxGeometry x="-570" y="-630" width="20" height="20" as="geometry" />
        </mxCell>
        <mxCell id="YoA1eTSPKysGuDBOuzfv-110" value="" style="rounded=1;whiteSpace=wrap;html=1;fillColor=#dae8fc;strokeColor=#6c8ebf;container=0;" parent="1" vertex="1">
          <mxGeometry x="-570" y="-610" width="20" height="20" as="geometry" />
        </mxCell>
        <mxCell id="YoA1eTSPKysGuDBOuzfv-111" value="" style="rounded=1;whiteSpace=wrap;html=1;fillColor=#dae8fc;strokeColor=#6c8ebf;container=0;" parent="1" vertex="1">
          <mxGeometry x="-570" y="-590" width="20" height="20" as="geometry" />
        </mxCell>
        <mxCell id="YoA1eTSPKysGuDBOuzfv-112" value="" style="rounded=1;whiteSpace=wrap;html=1;fillColor=#dae8fc;strokeColor=#6c8ebf;container=0;" parent="1" vertex="1">
          <mxGeometry x="-570" y="-570" width="20" height="20" as="geometry" />
        </mxCell>
        <mxCell id="YoA1eTSPKysGuDBOuzfv-113" value="" style="rounded=1;whiteSpace=wrap;html=1;fillColor=#dae8fc;strokeColor=#6c8ebf;container=0;" parent="1" vertex="1">
          <mxGeometry x="-570" y="-550" width="20" height="20" as="geometry" />
        </mxCell>
        <mxCell id="YoA1eTSPKysGuDBOuzfv-114" value="" style="rounded=1;whiteSpace=wrap;html=1;fillColor=#dae8fc;strokeColor=#6c8ebf;container=0;" parent="1" vertex="1">
          <mxGeometry x="-520" y="-630" width="20" height="20" as="geometry" />
        </mxCell>
        <mxCell id="YoA1eTSPKysGuDBOuzfv-115" value="" style="rounded=1;whiteSpace=wrap;html=1;fillColor=#dae8fc;strokeColor=#6c8ebf;container=0;" parent="1" vertex="1">
          <mxGeometry x="-520" y="-610" width="20" height="20" as="geometry" />
        </mxCell>
        <mxCell id="YoA1eTSPKysGuDBOuzfv-116" value="" style="rounded=1;whiteSpace=wrap;html=1;fillColor=#dae8fc;strokeColor=#6c8ebf;container=0;" parent="1" vertex="1">
          <mxGeometry x="-520" y="-590" width="20" height="20" as="geometry" />
        </mxCell>
        <mxCell id="YoA1eTSPKysGuDBOuzfv-117" value="" style="rounded=1;whiteSpace=wrap;html=1;fillColor=#dae8fc;strokeColor=#6c8ebf;container=0;" parent="1" vertex="1">
          <mxGeometry x="-520" y="-570" width="20" height="20" as="geometry" />
        </mxCell>
        <mxCell id="YoA1eTSPKysGuDBOuzfv-118" value="" style="rounded=1;whiteSpace=wrap;html=1;fillColor=#dae8fc;strokeColor=#6c8ebf;container=0;" parent="1" vertex="1">
          <mxGeometry x="-520" y="-550" width="20" height="20" as="geometry" />
        </mxCell>
        <mxCell id="YoA1eTSPKysGuDBOuzfv-119" value="$$\mathbf{m}_1$$" style="text;html=1;align=center;verticalAlign=middle;whiteSpace=wrap;rounded=0;" parent="1" vertex="1">
          <mxGeometry x="-604.5" y="-660" width="30" height="30" as="geometry" />
        </mxCell>
        <mxCell id="YoA1eTSPKysGuDBOuzfv-120" value="$$\dots$$" style="text;html=1;align=center;verticalAlign=middle;whiteSpace=wrap;rounded=0;" parent="1" vertex="1">
          <mxGeometry x="-550" y="-600" width="30" height="30" as="geometry" />
        </mxCell>
        <mxCell id="YoA1eTSPKysGuDBOuzfv-124" value="" style="rounded=1;whiteSpace=wrap;html=1;fillColor=#dae8fc;strokeColor=#6c8ebf;container=0;" parent="1" vertex="1">
          <mxGeometry x="-340" y="-840" width="20" height="20" as="geometry" />
        </mxCell>
        <mxCell id="YoA1eTSPKysGuDBOuzfv-125" value="" style="rounded=1;whiteSpace=wrap;html=1;fillColor=#dae8fc;strokeColor=#6c8ebf;container=0;" parent="1" vertex="1">
          <mxGeometry x="-320" y="-840" width="20" height="20" as="geometry" />
        </mxCell>
        <mxCell id="YoA1eTSPKysGuDBOuzfv-126" value="" style="rounded=1;whiteSpace=wrap;html=1;fillColor=#dae8fc;strokeColor=#6c8ebf;container=0;" parent="1" vertex="1">
          <mxGeometry x="-300" y="-840" width="20" height="20" as="geometry" />
        </mxCell>
        <mxCell id="YoA1eTSPKysGuDBOuzfv-127" value="" style="rounded=1;whiteSpace=wrap;html=1;fillColor=#dae8fc;strokeColor=#6c8ebf;container=0;" parent="1" vertex="1">
          <mxGeometry x="-280" y="-840" width="20" height="20" as="geometry" />
        </mxCell>
        <mxCell id="YoA1eTSPKysGuDBOuzfv-136" style="edgeStyle=orthogonalEdgeStyle;rounded=0;orthogonalLoop=1;jettySize=auto;html=1;entryX=0;entryY=0.5;entryDx=0;entryDy=0;fontColor=#808080;strokeColor=#B3B3B3;" parent="1" source="YoA1eTSPKysGuDBOuzfv-128" target="YoA1eTSPKysGuDBOuzfv-129" edge="1">
          <mxGeometry relative="1" as="geometry" />
        </mxCell>
        <mxCell id="YoA1eTSPKysGuDBOuzfv-128" value="" style="rounded=1;whiteSpace=wrap;html=1;fillColor=#dae8fc;strokeColor=#6c8ebf;container=0;" parent="1" vertex="1">
          <mxGeometry x="-260" y="-840" width="20" height="20" as="geometry" />
        </mxCell>
        <mxCell id="YoA1eTSPKysGuDBOuzfv-129" value="" style="rounded=1;whiteSpace=wrap;html=1;fillColor=#dae8fc;strokeColor=#6c8ebf;container=0;" parent="1" vertex="1">
          <mxGeometry x="-200" y="-840" width="20" height="20" as="geometry" />
        </mxCell>
        <mxCell id="YoA1eTSPKysGuDBOuzfv-130" value="" style="rounded=1;whiteSpace=wrap;html=1;fillColor=#dae8fc;strokeColor=#6c8ebf;container=0;" parent="1" vertex="1">
          <mxGeometry x="-180" y="-840" width="20" height="20" as="geometry" />
        </mxCell>
        <mxCell id="YoA1eTSPKysGuDBOuzfv-131" value="" style="rounded=1;whiteSpace=wrap;html=1;fillColor=#dae8fc;strokeColor=#6c8ebf;container=0;" parent="1" vertex="1">
          <mxGeometry x="-160" y="-840" width="20" height="20" as="geometry" />
        </mxCell>
        <mxCell id="YoA1eTSPKysGuDBOuzfv-132" value="" style="rounded=1;whiteSpace=wrap;html=1;fillColor=#dae8fc;strokeColor=#6c8ebf;container=0;" parent="1" vertex="1">
          <mxGeometry x="-140" y="-840" width="20" height="20" as="geometry" />
        </mxCell>
        <mxCell id="YoA1eTSPKysGuDBOuzfv-133" value="" style="rounded=1;whiteSpace=wrap;html=1;fillColor=#dae8fc;strokeColor=#6c8ebf;container=0;" parent="1" vertex="1">
          <mxGeometry x="-120" y="-840" width="20" height="20" as="geometry" />
        </mxCell>
        <mxCell id="YoA1eTSPKysGuDBOuzfv-134" value="Query&amp;nbsp; &amp;nbsp; &amp;nbsp; Keys" style="text;html=1;align=center;verticalAlign=middle;whiteSpace=wrap;rounded=0;fontStyle=1;fontFamily=Segoe UI;" parent="1" vertex="1">
          <mxGeometry x="-340" y="-870" width="100" height="30" as="geometry" />
        </mxCell>
        <mxCell id="YoA1eTSPKysGuDBOuzfv-135" value="Values" style="text;html=1;align=center;verticalAlign=middle;whiteSpace=wrap;rounded=0;fontStyle=1;fontFamily=Segoe UI;" parent="1" vertex="1">
          <mxGeometry x="-200" y="-870" width="100" height="30" as="geometry" />
        </mxCell>
        <mxCell id="YoA1eTSPKysGuDBOuzfv-148" value="" style="rounded=1;whiteSpace=wrap;html=1;fillColor=#dae8fc;strokeColor=#6c8ebf;container=0;" parent="1" vertex="1">
          <mxGeometry x="-340" y="-810" width="20" height="20" as="geometry" />
        </mxCell>
        <mxCell id="YoA1eTSPKysGuDBOuzfv-149" value="" style="rounded=1;whiteSpace=wrap;html=1;fillColor=#dae8fc;strokeColor=#6c8ebf;container=0;" parent="1" vertex="1">
          <mxGeometry x="-320" y="-810" width="20" height="20" as="geometry" />
        </mxCell>
        <mxCell id="YoA1eTSPKysGuDBOuzfv-150" value="" style="rounded=1;whiteSpace=wrap;html=1;fillColor=#dae8fc;strokeColor=#6c8ebf;container=0;" parent="1" vertex="1">
          <mxGeometry x="-300" y="-810" width="20" height="20" as="geometry" />
        </mxCell>
        <mxCell id="YoA1eTSPKysGuDBOuzfv-151" value="" style="rounded=1;whiteSpace=wrap;html=1;fillColor=#dae8fc;strokeColor=#6c8ebf;container=0;" parent="1" vertex="1">
          <mxGeometry x="-280" y="-810" width="20" height="20" as="geometry" />
        </mxCell>
        <mxCell id="YoA1eTSPKysGuDBOuzfv-152" style="edgeStyle=orthogonalEdgeStyle;rounded=0;orthogonalLoop=1;jettySize=auto;html=1;entryX=0;entryY=0.5;entryDx=0;entryDy=0;fontColor=#808080;strokeColor=#B3B3B3;" parent="1" source="YoA1eTSPKysGuDBOuzfv-153" target="YoA1eTSPKysGuDBOuzfv-154" edge="1">
          <mxGeometry relative="1" as="geometry" />
        </mxCell>
        <mxCell id="YoA1eTSPKysGuDBOuzfv-153" value="" style="rounded=1;whiteSpace=wrap;html=1;fillColor=#dae8fc;strokeColor=#6c8ebf;container=0;" parent="1" vertex="1">
          <mxGeometry x="-260" y="-810" width="20" height="20" as="geometry" />
        </mxCell>
        <mxCell id="YoA1eTSPKysGuDBOuzfv-154" value="" style="rounded=1;whiteSpace=wrap;html=1;fillColor=#dae8fc;strokeColor=#6c8ebf;container=0;" parent="1" vertex="1">
          <mxGeometry x="-200" y="-810" width="20" height="20" as="geometry" />
        </mxCell>
        <mxCell id="YoA1eTSPKysGuDBOuzfv-155" value="" style="rounded=1;whiteSpace=wrap;html=1;fillColor=#dae8fc;strokeColor=#6c8ebf;container=0;" parent="1" vertex="1">
          <mxGeometry x="-180" y="-810" width="20" height="20" as="geometry" />
        </mxCell>
        <mxCell id="YoA1eTSPKysGuDBOuzfv-156" value="" style="rounded=1;whiteSpace=wrap;html=1;fillColor=#dae8fc;strokeColor=#6c8ebf;container=0;" parent="1" vertex="1">
          <mxGeometry x="-160" y="-810" width="20" height="20" as="geometry" />
        </mxCell>
        <mxCell id="YoA1eTSPKysGuDBOuzfv-157" value="" style="rounded=1;whiteSpace=wrap;html=1;fillColor=#dae8fc;strokeColor=#6c8ebf;container=0;" parent="1" vertex="1">
          <mxGeometry x="-140" y="-810" width="20" height="20" as="geometry" />
        </mxCell>
        <mxCell id="YoA1eTSPKysGuDBOuzfv-158" value="" style="rounded=1;whiteSpace=wrap;html=1;fillColor=#dae8fc;strokeColor=#6c8ebf;container=0;" parent="1" vertex="1">
          <mxGeometry x="-120" y="-810" width="20" height="20" as="geometry" />
        </mxCell>
        <mxCell id="YoA1eTSPKysGuDBOuzfv-159" value="" style="rounded=1;whiteSpace=wrap;html=1;fillColor=#dae8fc;strokeColor=#6c8ebf;container=0;" parent="1" vertex="1">
          <mxGeometry x="-340" y="-760" width="20" height="20" as="geometry" />
        </mxCell>
        <mxCell id="YoA1eTSPKysGuDBOuzfv-160" value="" style="rounded=1;whiteSpace=wrap;html=1;fillColor=#dae8fc;strokeColor=#6c8ebf;container=0;" parent="1" vertex="1">
          <mxGeometry x="-320" y="-760" width="20" height="20" as="geometry" />
        </mxCell>
        <mxCell id="YoA1eTSPKysGuDBOuzfv-161" value="" style="rounded=1;whiteSpace=wrap;html=1;fillColor=#dae8fc;strokeColor=#6c8ebf;container=0;" parent="1" vertex="1">
          <mxGeometry x="-300" y="-760" width="20" height="20" as="geometry" />
        </mxCell>
        <mxCell id="YoA1eTSPKysGuDBOuzfv-162" value="" style="rounded=1;whiteSpace=wrap;html=1;fillColor=#dae8fc;strokeColor=#6c8ebf;container=0;" parent="1" vertex="1">
          <mxGeometry x="-280" y="-760" width="20" height="20" as="geometry" />
        </mxCell>
        <mxCell id="YoA1eTSPKysGuDBOuzfv-163" style="edgeStyle=orthogonalEdgeStyle;rounded=0;orthogonalLoop=1;jettySize=auto;html=1;entryX=0;entryY=0.5;entryDx=0;entryDy=0;fontColor=#808080;strokeColor=#B3B3B3;" parent="1" source="YoA1eTSPKysGuDBOuzfv-164" target="YoA1eTSPKysGuDBOuzfv-165" edge="1">
          <mxGeometry relative="1" as="geometry" />
        </mxCell>
        <mxCell id="YoA1eTSPKysGuDBOuzfv-164" value="" style="rounded=1;whiteSpace=wrap;html=1;fillColor=#dae8fc;strokeColor=#6c8ebf;container=0;" parent="1" vertex="1">
          <mxGeometry x="-260" y="-760" width="20" height="20" as="geometry" />
        </mxCell>
        <mxCell id="YoA1eTSPKysGuDBOuzfv-165" value="" style="rounded=1;whiteSpace=wrap;html=1;fillColor=#dae8fc;strokeColor=#6c8ebf;container=0;" parent="1" vertex="1">
          <mxGeometry x="-200" y="-760" width="20" height="20" as="geometry" />
        </mxCell>
        <mxCell id="YoA1eTSPKysGuDBOuzfv-166" value="" style="rounded=1;whiteSpace=wrap;html=1;fillColor=#dae8fc;strokeColor=#6c8ebf;container=0;" parent="1" vertex="1">
          <mxGeometry x="-180" y="-760" width="20" height="20" as="geometry" />
        </mxCell>
        <mxCell id="YoA1eTSPKysGuDBOuzfv-167" value="" style="rounded=1;whiteSpace=wrap;html=1;fillColor=#dae8fc;strokeColor=#6c8ebf;container=0;" parent="1" vertex="1">
          <mxGeometry x="-160" y="-760" width="20" height="20" as="geometry" />
        </mxCell>
        <mxCell id="YoA1eTSPKysGuDBOuzfv-168" value="" style="rounded=1;whiteSpace=wrap;html=1;fillColor=#dae8fc;strokeColor=#6c8ebf;container=0;" parent="1" vertex="1">
          <mxGeometry x="-140" y="-760" width="20" height="20" as="geometry" />
        </mxCell>
        <mxCell id="YoA1eTSPKysGuDBOuzfv-169" value="" style="rounded=1;whiteSpace=wrap;html=1;fillColor=#dae8fc;strokeColor=#6c8ebf;container=0;" parent="1" vertex="1">
          <mxGeometry x="-120" y="-760" width="20" height="20" as="geometry" />
        </mxCell>
        <mxCell id="YoA1eTSPKysGuDBOuzfv-170" value="$$\dots$$" style="text;html=1;align=center;verticalAlign=middle;whiteSpace=wrap;rounded=0;" parent="1" vertex="1">
          <mxGeometry x="-295" y="-790" width="30" height="30" as="geometry" />
        </mxCell>
        <mxCell id="YoA1eTSPKysGuDBOuzfv-171" value="$$\dots$$" style="text;html=1;align=center;verticalAlign=middle;whiteSpace=wrap;rounded=0;" parent="1" vertex="1">
          <mxGeometry x="-165" y="-790" width="30" height="30" as="geometry" />
        </mxCell>
        <mxCell id="YoA1eTSPKysGuDBOuzfv-172" value="" style="group" parent="1" vertex="1" connectable="0">
          <mxGeometry x="-480" y="-820" width="130" height="50" as="geometry" />
        </mxCell>
        <mxCell id="YoA1eTSPKysGuDBOuzfv-122" value="" style="endArrow=classic;html=1;rounded=0;strokeColor=#B3B3B3;endFill=1;" parent="YoA1eTSPKysGuDBOuzfv-172" edge="1">
          <mxGeometry width="50" height="50" relative="1" as="geometry">
            <mxPoint y="50" as="sourcePoint" />
            <mxPoint as="targetPoint" />
          </mxGeometry>
        </mxCell>
        <mxCell id="YoA1eTSPKysGuDBOuzfv-123" value="" style="endArrow=classic;html=1;rounded=0;strokeColor=#B3B3B3;endFill=1;" parent="YoA1eTSPKysGuDBOuzfv-172" edge="1">
          <mxGeometry width="50" height="50" relative="1" as="geometry">
            <mxPoint y="50" as="sourcePoint" />
            <mxPoint x="130" y="50" as="targetPoint" />
          </mxGeometry>
        </mxCell>
        <mxCell id="YoA1eTSPKysGuDBOuzfv-121" value="" style="curved=1;endArrow=none;html=1;rounded=0;endFill=0;" parent="YoA1eTSPKysGuDBOuzfv-172" edge="1">
          <mxGeometry width="50" height="50" relative="1" as="geometry">
            <mxPoint y="50" as="sourcePoint" />
            <mxPoint x="120" y="50" as="targetPoint" />
            <Array as="points">
              <mxPoint x="20" y="40" />
              <mxPoint x="30" />
              <mxPoint x="40" y="50" />
            </Array>
          </mxGeometry>
        </mxCell>
        <mxCell id="YoA1eTSPKysGuDBOuzfv-173" value="" style="rounded=0;whiteSpace=wrap;html=1;fillColor=none;strokeColor=#FF0000;" parent="1" vertex="1">
          <mxGeometry x="-460" y="-830" width="20" height="60" as="geometry" />
        </mxCell>
        <mxCell id="YoA1eTSPKysGuDBOuzfv-175" value="" style="endArrow=classic;html=1;rounded=0;strokeWidth=2;strokeColor=#FF0000;" parent="1" edge="1">
          <mxGeometry width="50" height="50" relative="1" as="geometry">
            <mxPoint x="-645" y="-760" as="sourcePoint" />
            <mxPoint x="-525" y="-800" as="targetPoint" />
          </mxGeometry>
        </mxCell>
        <mxCell id="YoA1eTSPKysGuDBOuzfv-176" value="" style="endArrow=classic;html=1;rounded=0;strokeWidth=2;strokeColor=#0000FF;" parent="1" edge="1">
          <mxGeometry width="50" height="50" relative="1" as="geometry">
            <mxPoint x="-645" y="-760" as="sourcePoint" />
            <mxPoint x="-725" y="-840" as="targetPoint" />
          </mxGeometry>
        </mxCell>
        <mxCell id="YoA1eTSPKysGuDBOuzfv-177" value="" style="endArrow=classic;html=1;rounded=0;strokeWidth=2;strokeColor=#7F00FF;" parent="1" edge="1">
          <mxGeometry width="50" height="50" relative="1" as="geometry">
            <mxPoint x="-645" y="-760" as="sourcePoint" />
            <mxPoint x="-605" y="-880" as="targetPoint" />
          </mxGeometry>
        </mxCell>
        <mxCell id="YoA1eTSPKysGuDBOuzfv-181" value="" style="endArrow=classic;html=1;rounded=0;" parent="1" edge="1">
          <mxGeometry width="50" height="50" relative="1" as="geometry">
            <mxPoint x="-685" y="-760" as="sourcePoint" />
            <mxPoint x="-515" y="-760" as="targetPoint" />
          </mxGeometry>
        </mxCell>
        <mxCell id="YoA1eTSPKysGuDBOuzfv-182" value="" style="endArrow=classic;html=1;rounded=0;" parent="1" edge="1">
          <mxGeometry width="50" height="50" relative="1" as="geometry">
            <mxPoint x="-645" y="-740" as="sourcePoint" />
            <mxPoint x="-645" y="-890" as="targetPoint" />
          </mxGeometry>
        </mxCell>
        <mxCell id="YoA1eTSPKysGuDBOuzfv-183" value="$$\vec{\mathbf{q}}$$" style="text;html=1;align=center;verticalAlign=middle;whiteSpace=wrap;rounded=0;" parent="1" vertex="1">
          <mxGeometry x="-725" y="-865" width="30" height="30" as="geometry" />
        </mxCell>
        <mxCell id="YoA1eTSPKysGuDBOuzfv-184" value="$$\vec{\mathbf{k}}$$" style="text;html=1;align=center;verticalAlign=middle;whiteSpace=wrap;rounded=0;" parent="1" vertex="1">
          <mxGeometry x="-560" y="-825" width="30" height="30" as="geometry" />
        </mxCell>
        <mxCell id="YoA1eTSPKysGuDBOuzfv-185" value="$$\vec{\mathbf{q} \cdot \mathbf{k}}$$" style="text;html=1;align=center;verticalAlign=middle;whiteSpace=wrap;rounded=0;" parent="1" vertex="1">
          <mxGeometry x="-640" y="-905" width="30" height="30" as="geometry" />
        </mxCell>
        <mxCell id="YoA1eTSPKysGuDBOuzfv-187" value="$$\mathbf{m}_2$$" style="text;html=1;align=center;verticalAlign=middle;whiteSpace=wrap;rounded=0;" parent="1" vertex="1">
          <mxGeometry x="-574.5" y="-660" width="30" height="30" as="geometry" />
        </mxCell>
        <mxCell id="YoA1eTSPKysGuDBOuzfv-188" value="$$\mathbf{m}_M$$" style="text;html=1;align=center;verticalAlign=middle;whiteSpace=wrap;rounded=0;" parent="1" vertex="1">
          <mxGeometry x="-525" y="-660" width="30" height="30" as="geometry" />
        </mxCell>
        <mxCell id="YoA1eTSPKysGuDBOuzfv-190" value="$$\times$$" style="text;html=1;align=center;verticalAlign=middle;whiteSpace=wrap;rounded=0;" parent="1" vertex="1">
          <mxGeometry x="-302" y="-868" width="30" height="30" as="geometry" />
        </mxCell>
        <mxCell id="YoA1eTSPKysGuDBOuzfv-191" value="$$\mathbf{V}$$" style="text;html=1;align=center;verticalAlign=middle;whiteSpace=wrap;rounded=0;" parent="1" vertex="1">
          <mxGeometry x="-180" y="-730" width="60" height="30" as="geometry" />
        </mxCell>
        <mxCell id="YoA1eTSPKysGuDBOuzfv-192" value="$$\text{softmax}( \frac{\mathbf{Q} \mathbf{K}^{T}}{\sqrt{C}})$$" style="text;html=1;align=center;verticalAlign=middle;whiteSpace=wrap;rounded=0;" parent="1" vertex="1">
          <mxGeometry x="-340" y="-730" width="100" height="30" as="geometry" />
        </mxCell>
        <mxCell id="YoA1eTSPKysGuDBOuzfv-193" value="$$\mathbf{k}_1$$" style="rounded=1;whiteSpace=wrap;html=1;fillColor=#ffe6cc;strokeColor=#d79b00;container=0;" parent="1" vertex="1">
          <mxGeometry x="-460" y="-560" width="20" height="40" as="geometry" />
        </mxCell>
        <mxCell id="YoA1eTSPKysGuDBOuzfv-194" value="$$\mathbf{v}_1$$" style="rounded=1;whiteSpace=wrap;html=1;fillColor=#d5e8d4;strokeColor=#82b366;container=0;" parent="1" vertex="1">
          <mxGeometry x="-430" y="-560" width="20" height="40" as="geometry" />
        </mxCell>
        <mxCell id="YoA1eTSPKysGuDBOuzfv-213" style="edgeStyle=orthogonalEdgeStyle;rounded=0;orthogonalLoop=1;jettySize=auto;html=1;entryX=0.5;entryY=1;entryDx=0;entryDy=0;strokeWidth=2;strokeColor=#FF0000;" parent="1" source="YoA1eTSPKysGuDBOuzfv-195" target="YoA1eTSPKysGuDBOuzfv-212" edge="1">
          <mxGeometry relative="1" as="geometry" />
        </mxCell>
        <mxCell id="YoA1eTSPKysGuDBOuzfv-195" value="$$\mathbf{q}_1$$" style="rounded=1;whiteSpace=wrap;html=1;fillColor=#f8cecc;strokeColor=#b85450;container=0;" parent="1" vertex="1">
          <mxGeometry x="-230" y="-560" width="20" height="40" as="geometry" />
        </mxCell>
        <mxCell id="YoA1eTSPKysGuDBOuzfv-197" value="$$\mathbf{k}_2$$" style="rounded=1;whiteSpace=wrap;html=1;fillColor=#ffe6cc;strokeColor=#d79b00;container=0;" parent="1" vertex="1">
          <mxGeometry x="-390" y="-560" width="20" height="40" as="geometry" />
        </mxCell>
        <mxCell id="YoA1eTSPKysGuDBOuzfv-198" value="$$\mathbf{v}_2$$" style="rounded=1;whiteSpace=wrap;html=1;fillColor=#d5e8d4;strokeColor=#82b366;container=0;" parent="1" vertex="1">
          <mxGeometry x="-360" y="-560" width="20" height="40" as="geometry" />
        </mxCell>
        <mxCell id="YoA1eTSPKysGuDBOuzfv-199" value="$$\mathbf{k}_M$$" style="rounded=1;whiteSpace=wrap;html=1;fillColor=#ffe6cc;strokeColor=#d79b00;container=0;" parent="1" vertex="1">
          <mxGeometry x="-310" y="-560" width="20" height="40" as="geometry" />
        </mxCell>
        <mxCell id="YoA1eTSPKysGuDBOuzfv-200" value="$$\mathbf{v}_M$$" style="rounded=1;whiteSpace=wrap;html=1;fillColor=#d5e8d4;strokeColor=#82b366;container=0;" parent="1" vertex="1">
          <mxGeometry x="-280" y="-560" width="20" height="40" as="geometry" />
        </mxCell>
        <mxCell id="YoA1eTSPKysGuDBOuzfv-201" value="$$\dots$$" style="text;html=1;align=center;verticalAlign=middle;whiteSpace=wrap;rounded=0;" parent="1" vertex="1">
          <mxGeometry x="-340" y="-555" width="30" height="30" as="geometry" />
        </mxCell>
        <mxCell id="YoA1eTSPKysGuDBOuzfv-202" value="$$\mathbf{q}_2$$" style="rounded=1;whiteSpace=wrap;html=1;fillColor=#f8cecc;strokeColor=#b85450;container=0;" parent="1" vertex="1">
          <mxGeometry x="-199.48" y="-560" width="20" height="40" as="geometry" />
        </mxCell>
        <mxCell id="YoA1eTSPKysGuDBOuzfv-203" value="$$\mathbf{q}_M$$" style="rounded=1;whiteSpace=wrap;html=1;fillColor=#f8cecc;strokeColor=#b85450;container=0;" parent="1" vertex="1">
          <mxGeometry x="-149.26" y="-560" width="20" height="40" as="geometry" />
        </mxCell>
        <mxCell id="YoA1eTSPKysGuDBOuzfv-204" value="$$\dots$$" style="text;html=1;align=center;verticalAlign=middle;whiteSpace=wrap;rounded=0;" parent="1" vertex="1">
          <mxGeometry x="-179.48" y="-555" width="30" height="30" as="geometry" />
        </mxCell>
        <mxCell id="YoA1eTSPKysGuDBOuzfv-226" style="edgeStyle=orthogonalEdgeStyle;rounded=0;orthogonalLoop=1;jettySize=auto;html=1;entryX=0.5;entryY=1;entryDx=0;entryDy=0;fillColor=#e1d5e7;strokeColor=#9673a6;" parent="1" source="YoA1eTSPKysGuDBOuzfv-212" target="YoA1eTSPKysGuDBOuzfv-225" edge="1">
          <mxGeometry relative="1" as="geometry" />
        </mxCell>
        <mxCell id="YoA1eTSPKysGuDBOuzfv-212" value="$$\mathbf{\alpha}_i$$" style="rounded=1;whiteSpace=wrap;html=1;fillColor=#e1d5e7;strokeColor=#9673a6;container=0;" parent="1" vertex="1">
          <mxGeometry x="-230" y="-640" width="20" height="40" as="geometry" />
        </mxCell>
        <mxCell id="YoA1eTSPKysGuDBOuzfv-218" value="" style="endArrow=classic;html=1;rounded=0;exitX=0.5;exitY=0;exitDx=0;exitDy=0;entryX=0;entryY=0.25;entryDx=0;entryDy=0;fillColor=#fff2cc;strokeColor=#d6b656;" parent="1" source="YoA1eTSPKysGuDBOuzfv-193" target="YoA1eTSPKysGuDBOuzfv-212" edge="1">
          <mxGeometry width="50" height="50" relative="1" as="geometry">
            <mxPoint x="-380" y="-550" as="sourcePoint" />
            <mxPoint x="-330" y="-600" as="targetPoint" />
          </mxGeometry>
        </mxCell>
        <mxCell id="YoA1eTSPKysGuDBOuzfv-220" value="" style="endArrow=classic;html=1;rounded=0;exitX=0.5;exitY=0;exitDx=0;exitDy=0;entryX=0;entryY=0.5;entryDx=0;entryDy=0;fillColor=#fff2cc;strokeColor=#d6b656;" parent="1" source="YoA1eTSPKysGuDBOuzfv-197" target="YoA1eTSPKysGuDBOuzfv-212" edge="1">
          <mxGeometry width="50" height="50" relative="1" as="geometry">
            <mxPoint x="-440" y="-550" as="sourcePoint" />
            <mxPoint x="-220" y="-620" as="targetPoint" />
          </mxGeometry>
        </mxCell>
        <mxCell id="YoA1eTSPKysGuDBOuzfv-221" value="" style="endArrow=classic;html=1;rounded=0;exitX=0.5;exitY=0;exitDx=0;exitDy=0;entryX=0;entryY=0.75;entryDx=0;entryDy=0;fillColor=#fff2cc;strokeColor=#d6b656;" parent="1" source="YoA1eTSPKysGuDBOuzfv-199" target="YoA1eTSPKysGuDBOuzfv-212" edge="1">
          <mxGeometry width="50" height="50" relative="1" as="geometry">
            <mxPoint x="-370" y="-550" as="sourcePoint" />
            <mxPoint x="-220" y="-610" as="targetPoint" />
          </mxGeometry>
        </mxCell>
        <mxCell id="YoA1eTSPKysGuDBOuzfv-222" value="" style="endArrow=classic;html=1;rounded=0;exitX=0.5;exitY=0;exitDx=0;exitDy=0;entryX=0;entryY=0.75;entryDx=0;entryDy=0;fillColor=#d5e8d4;strokeColor=#82b366;" parent="1" source="YoA1eTSPKysGuDBOuzfv-200" target="YoA1eTSPKysGuDBOuzfv-225" edge="1">
          <mxGeometry width="50" height="50" relative="1" as="geometry">
            <mxPoint x="-290" y="-550" as="sourcePoint" />
            <mxPoint x="-220" y="-600" as="targetPoint" />
          </mxGeometry>
        </mxCell>
        <mxCell id="YoA1eTSPKysGuDBOuzfv-223" value="" style="endArrow=classic;html=1;rounded=0;exitX=0.5;exitY=0;exitDx=0;exitDy=0;entryX=0;entryY=0.5;entryDx=0;entryDy=0;fillColor=#d5e8d4;strokeColor=#82b366;" parent="1" source="YoA1eTSPKysGuDBOuzfv-198" target="YoA1eTSPKysGuDBOuzfv-225" edge="1">
          <mxGeometry width="50" height="50" relative="1" as="geometry">
            <mxPoint x="-260" y="-550" as="sourcePoint" />
            <mxPoint x="-220" y="-600" as="targetPoint" />
          </mxGeometry>
        </mxCell>
        <mxCell id="YoA1eTSPKysGuDBOuzfv-224" value="" style="endArrow=classic;html=1;rounded=0;exitX=0.5;exitY=0;exitDx=0;exitDy=0;fillColor=#d5e8d4;strokeColor=#82b366;entryX=-0.004;entryY=0.316;entryDx=0;entryDy=0;entryPerimeter=0;" parent="1" source="YoA1eTSPKysGuDBOuzfv-194" target="YoA1eTSPKysGuDBOuzfv-225" edge="1">
          <mxGeometry width="50" height="50" relative="1" as="geometry">
            <mxPoint x="-340" y="-550" as="sourcePoint" />
            <mxPoint x="-230" y="-630" as="targetPoint" />
          </mxGeometry>
        </mxCell>
        <mxCell id="YoA1eTSPKysGuDBOuzfv-225" value="$$\mathbf{m}&#39;_i$$" style="rounded=1;whiteSpace=wrap;html=1;fillColor=#b0e3e6;strokeColor=#0e8088;container=0;" parent="1" vertex="1">
          <mxGeometry x="-230" y="-700" width="20" height="40" as="geometry" />
        </mxCell>
        <mxCell id="YoA1eTSPKysGuDBOuzfv-227" value="$$\dots$$" style="text;html=1;align=center;verticalAlign=middle;whiteSpace=wrap;rounded=0;" parent="1" vertex="1">
          <mxGeometry x="-185" y="-635" width="30" height="30" as="geometry" />
        </mxCell>
        <mxCell id="YoA1eTSPKysGuDBOuzfv-228" value="$$\dots$$" style="text;html=1;align=center;verticalAlign=middle;whiteSpace=wrap;rounded=0;" parent="1" vertex="1">
          <mxGeometry x="-185" y="-700" width="30" height="30" as="geometry" />
        </mxCell>
        <mxCell id="YoA1eTSPKysGuDBOuzfv-229" value="" style="rounded=1;whiteSpace=wrap;html=1;fillColor=none;dashed=1;dashPattern=8 8;strokeColor=#666666;" parent="1" vertex="1">
          <mxGeometry x="-470" y="-570" width="220" height="60" as="geometry" />
        </mxCell>
        <mxCell id="YoA1eTSPKysGuDBOuzfv-230" value="" style="rounded=1;whiteSpace=wrap;html=1;fillColor=none;dashed=1;dashPattern=8 8;strokeColor=#FF6666;" parent="1" vertex="1">
          <mxGeometry x="-240" y="-570" width="120" height="60" as="geometry" />
        </mxCell>
        <mxCell id="YoA1eTSPKysGuDBOuzfv-236" value="" style="rounded=1;whiteSpace=wrap;html=1;fillColor=#dae8fc;strokeColor=#6c8ebf;container=0;" parent="1" vertex="1">
          <mxGeometry x="-335" y="-480" width="20" height="20" as="geometry" />
        </mxCell>
        <mxCell id="YoA1eTSPKysGuDBOuzfv-237" value="" style="rounded=1;whiteSpace=wrap;html=1;fillColor=#dae8fc;strokeColor=#6c8ebf;container=0;" parent="1" vertex="1">
          <mxGeometry x="-315" y="-480" width="20" height="20" as="geometry" />
        </mxCell>
        <mxCell id="YoA1eTSPKysGuDBOuzfv-241" style="edgeStyle=orthogonalEdgeStyle;rounded=0;orthogonalLoop=1;jettySize=auto;html=1;entryX=0.5;entryY=1;entryDx=0;entryDy=0;" parent="1" source="YoA1eTSPKysGuDBOuzfv-238" target="YoA1eTSPKysGuDBOuzfv-229" edge="1">
          <mxGeometry relative="1" as="geometry">
            <Array as="points">
              <mxPoint x="-285" y="-490" />
              <mxPoint x="-360" y="-490" />
            </Array>
          </mxGeometry>
        </mxCell>
        <mxCell id="YoA1eTSPKysGuDBOuzfv-242" style="edgeStyle=orthogonalEdgeStyle;rounded=0;orthogonalLoop=1;jettySize=auto;html=1;entryX=0.5;entryY=1;entryDx=0;entryDy=0;" parent="1" source="YoA1eTSPKysGuDBOuzfv-238" target="YoA1eTSPKysGuDBOuzfv-230" edge="1">
          <mxGeometry relative="1" as="geometry">
            <Array as="points">
              <mxPoint x="-285" y="-490" />
              <mxPoint x="-180" y="-490" />
            </Array>
          </mxGeometry>
        </mxCell>
        <mxCell id="YoA1eTSPKysGuDBOuzfv-238" value="" style="rounded=1;whiteSpace=wrap;html=1;fillColor=#dae8fc;strokeColor=#6c8ebf;container=0;" parent="1" vertex="1">
          <mxGeometry x="-295" y="-480" width="20" height="20" as="geometry" />
        </mxCell>
        <mxCell id="YoA1eTSPKysGuDBOuzfv-239" value="" style="rounded=1;whiteSpace=wrap;html=1;fillColor=#dae8fc;strokeColor=#6c8ebf;container=0;" parent="1" vertex="1">
          <mxGeometry x="-275" y="-480" width="20" height="20" as="geometry" />
        </mxCell>
        <mxCell id="YoA1eTSPKysGuDBOuzfv-240" value="" style="rounded=1;whiteSpace=wrap;html=1;fillColor=#dae8fc;strokeColor=#6c8ebf;container=0;" parent="1" vertex="1">
          <mxGeometry x="-255" y="-480" width="20" height="20" as="geometry" />
        </mxCell>
        <mxCell id="YoA1eTSPKysGuDBOuzfv-243" value="$$\dots$$" style="text;html=1;align=center;verticalAlign=middle;whiteSpace=wrap;rounded=0;" parent="1" vertex="1">
          <mxGeometry x="-229.48000000000002" y="-485" width="30" height="30" as="geometry" />
        </mxCell>
      </root>
    </mxGraphModel>
  </diagram>
</mxfile>
